<svg xmlns="http://www.w3.org/2000/svg" viewBox="0 0 333.829 333.829" width="512" height="512"><path d="M166.911 333.826C74.879 333.826 0 258.953 0 166.915S74.879.003 166.911.003c92.045 0 166.918 74.879 166.918 166.918s-74.873 166.905-166.918 166.905zm0-320.969c-84.95 0-154.058 69.108-154.058 154.064 0 84.943 69.108 154.058 154.058 154.058s154.064-69.114 154.064-154.058c0-84.956-69.107-154.064-154.064-154.064zm38.761 84.468c-10.656 0-19.293 8.631-19.293 19.293 0 10.649 8.638 19.293 19.293 19.293s19.293-8.644 19.293-19.293c0-10.662-8.638-19.293-19.293-19.293zm-80.336 0c-10.656 0-19.293 8.631-19.293 19.293 0 10.649 8.638 19.293 19.293 19.293s19.293-8.644 19.293-19.293c0-10.662-8.631-19.293-19.293-19.293zM249.817 213.4c3.953-3.567 4.255-9.666.688-13.618a9.667 9.667 0 0 0-13.618-.688c-19.133 17.295-43.882 26.813-69.686 26.813-25.887 0-50.701-9.563-69.853-26.948-3.927-3.58-10.039-3.291-13.612.656-3.586 3.94-3.284 10.045.662 13.618 22.706 20.611 52.115 31.961 82.81 31.961 30.578-.013 59.929-11.293 82.609-31.794z" fill="#fff"/></svg>