<svg xmlns="http://www.w3.org/2000/svg" viewBox="0 0 511 511" width="512" height="512"><g fill="#0F273A"><path d="M401.38 349.894a7.458 7.458 0 0 0-.911-.195l-62.406-9.363c-10.092-6.529-11.044-22.723-11.063-40.259 19.708-20.313 32-48.909 32-80.542v-2.562c15.296-13.583 24-32.855 24-53.438v-48c0-39.425-32.075-71.5-71.5-71.5h-104c-14.929 0-27.465 10.44-30.693 24.401C149.349 71.753 128 95.198 128 123.535v40c0 20.586 8.703 39.856 24 53.439v2.561c0 31.633 12.292 60.229 31.999 80.542-.018 17.536-.971 33.729-11.063 40.259l-62.406 9.363a7.498 7.498 0 0 0-.911.195c-13.725 3.845-25.403 12.356-33.772 24.615C68.208 385.699 64 399.207 64 412.545v30.99c0 12.92 11.526 23.431 25.693 23.431h331.613c14.167 0 25.693-10.511 25.693-23.431v-30.99c0-13.337-4.208-26.845-11.847-38.035-8.368-12.259-20.047-20.771-33.772-24.616zM255.5 331.035c20.94 0 40.443-6.74 56.75-18.303.721 13.688 3.556 28.875 14.688 38.028-6.02 30.648-35.931 53.275-71.438 53.275s-65.418-22.627-71.438-53.275c11.133-9.153 13.967-24.34 14.688-38.028 16.307 11.563 35.81 18.303 56.75 18.303zM167 214.227a7.542 7.542 0 0 0 0-1.369v-41.324c0-13.509 10.991-24.5 24.5-24.5h136a7.5 7.5 0 0 0 0-15h-136c-21.78 0-39.5 17.72-39.5 39.5v22.605c-5.817-9.005-9-19.562-9-30.605v-40c0-22.332 18.168-40.5 40.5-40.5a7.5 7.5 0 0 0 7.5-7.5c0-9.098 7.402-16.5 16.5-16.5h104c31.154 0 56.5 25.346 56.5 56.5v48c0 11.041-3.183 21.598-9 30.604v-30.604a7.5 7.5 0 0 0-15 0v56c0 53.21-39.701 96.5-88.5 96.5s-88.5-43.29-88.5-96.5v-5.307zm265 229.308c0 4.57-4.897 8.431-10.693 8.431H89.693c-5.796 0-10.693-3.861-10.693-8.431v-30.99c0-19.008 11.758-41.543 34.235-48.084l56.587-8.49c8.389 36.441 43.851 63.064 85.678 63.064s77.289-26.623 85.678-63.064l56.587 8.49C420.242 371.002 432 393.537 432 412.545v30.99z"/><path d="M47.5 380.035H19.271c-2.444 0-4.271-1.481-4.271-2.807v-20.051c0-11.261 6.893-24.589 20.075-28.519l40.826-6.125c.177-.026.348-.066.521-.105.075-.017.151-.026.226-.045.28-.071.551-.161.816-.262.064-.024.127-.054.19-.081.218-.09.43-.189.637-.298.034-.018.071-.03.105-.049.066-.036.126-.076.192-.113.056-.033.112-.064.167-.098 9.087-5.184 12.232-14.571 13.315-23.744 9.956 5.908 21.388 9.281 33.544 9.281 10.203 0 20.037-2.318 29.229-6.891a7.5 7.5 0 1 0-6.681-13.43c-7.098 3.53-14.685 5.321-22.548 5.321-30.115 0-54.614-26.821-54.614-59.788v-31.992c0-7.281 5.923-13.204 13.204-13.204H103.5a7.5 7.5 0 0 0 0-15H84.204C68.652 172.035 56 184.687 56 200.239v3.931a34.07 34.07 0 0 1-1-8.171v-25.88c0-12.989 10.567-23.556 23.556-23.556a7.5 7.5 0 0 0 7.5-7.5c0-4.427 3.601-8.028 8.028-8.028h9.416a7.5 7.5 0 0 0 0-15h-9.416c-10.271 0-18.993 6.759-21.952 16.063C53.919 135.165 40 151.047 40 170.119v25.88c0 13.893 5.798 26.904 16 36.173v.06c0 21.268 8.32 40.475 21.63 54.105-.081 9.538-.811 18.088-5.526 21.599l-39.744 5.963a7.498 7.498 0 0 0-.911.195C10.802 319.878 0 340.145 0 357.177v20.051c0 9.818 8.645 17.807 19.271 17.807H47.5a7.5 7.5 0 0 0 0-15zm432.051-65.942a7.65 7.65 0 0 0-.911-.195l-39.744-5.963c-4.715-3.511-5.446-12.061-5.527-21.598 13.31-13.631 21.63-32.838 21.63-54.106v-.06c10.202-9.269 16-22.281 16-36.181v-40.456c0-21.78-17.72-39.5-39.5-39.5h-24a7.5 7.5 0 0 0 0 15h24c13.509 0 24.5 10.991 24.5 24.5v40.464a34.07 34.07 0 0 1-1 8.171v-3.931c0-15.552-12.652-28.204-28.204-28.204H407.5a7.5 7.5 0 0 0 0 15h19.296c7.281 0 13.204 5.923 13.204 13.204v31.992c0 32.967-24.499 59.788-54.612 59.788-7.864 0-15.45-1.791-22.548-5.321a7.5 7.5 0 0 0-6.681 13.43c9.192 4.572 19.026 6.891 29.229 6.891 12.155 0 23.588-3.373 33.543-9.281 1.083 9.172 4.229 18.56 13.316 23.744.054.034.111.065.166.098.065.037.126.077.192.113.034.019.071.031.105.049.206.109.418.208.636.298.064.027.127.057.191.081.265.101.535.191.815.262.076.019.152.029.228.046.171.038.342.078.518.104l40.825 6.125c13.183 3.93 20.076 17.258 20.076 28.519v20.051c0 1.325-1.827 2.807-4.271 2.807H463.5a7.5 7.5 0 0 0 0 15h28.229c10.626 0 19.271-7.988 19.271-17.807v-20.051c0-17.031-10.802-37.298-31.449-43.083z"/></g></svg>