<svg id="Capa_1" xmlns="http://www.w3.org/2000/svg" viewBox="0 0 512 512"><style>.st0{fill:#0f273a}</style><path class="st0" d="M487.5 186.4h-7.4c.1-3.2.1-6.5.1-9.7h7.3c5 0 9-4 9-9s-4-9-9-9h-7.3c0-22.4-2.3-44.4-7.9-65.5-7.1-27-28.1-52.8-58.9-72.7-38-24.4-91.7-27.2-140.2-7.1l-1.7.7c-.8.4-1.6.7-2.4 1-4.1 1.4-7.2 2.6-9.7 3.6-8.1 3.1-8.1 3.1-21.3-.8C200.2 6.7 152-4.4 115 8.7 68.8 25.1 27.4 76.4 32.1 155.9c-.1.9-.1 1.8-.2 2.6h-7.5c-5 0-9 4-9 9s4 9 9 9h8.4c.2 1.1.3 2.2.5 3.5l.6 3.6c.1.9.3 1.8.4 2.7h-9.9c-5 0-9 4-9 9s4 9 9 9H37c.6 3.7 1.1 7.4 1.7 11.1C50.2 292.3 62 371.9 92.5 443.7l1 2.5c7.6 18 20.2 48.1 42.3 48.1h1.9l1.6-.7c4.2-1.8 7.8-4 11-6.6.2-.1.3-.3.5-.4l.2-.2c11.6-9.6 17.1-23.3 21.4-34 8.3-20.9 19.3-45.8 26.3-60.4 14.9 25.8 38.5 63.3 71.9 53.6 19.7-5.7 29.6-25.6 36.8-40.1l4-7.9c2.3-4.4 4.9-9.6 7.5-15 5.3 16.6 9.9 31.1 14 43.2 10.6 31.8 24.3 64.6 46.1 66.8 11.5 1.1 22-6.4 31.4-22.5 17.1-29.3 24.5-61.9 31.6-93.5l2.5-11.1c3.5-15.4 7.7-31.1 11.6-46.4 9.8-37.4 19.8-75.6 23-115.2h8.3c5 0 9-4 9-9 .1-4.5-3.9-8.5-8.9-8.5zm-25.3-9.7c-.2 3.2-.4 6.5-.6 9.7h-106v-9.7h106.6zM120.8 25.2c32.3-11.4 78.8-.3 111.3 9.2 0 0 24.4 4 33.6.6s5.3-2.1 9.1-3.4c1.2-.4 2.4-.9 3.6-1.5l1.4-.6c43.3-17.9 90.8-15.7 124.1 5.7 27.2 17.5 45.4 39.6 51.5 62.4 5.2 19.5 7.3 40 7.3 61H355.5v-66c0-5-4-9-9-9H283c-5 0-9 4-9 9v4.9h-36.9v-4.9c0-5-4.1-9-9-9h-62.9c-5 0-9 4-9 9v66H83.7l-13.3-.2-5.7.2H49.9c-3.8-54.8 16-114 70.9-133.4zm162.3 222.3h-45.9v-132H274v100.7c0 5 4 9 9 9s9-4 9-9V101.6h45.4v159.8H292v-4.9c.1-4.9-3.9-9-8.9-9zm-63.9-141v154.9h-44.9V101.6h44.9v4.9zM52 176.7h104.2v9.7H53.4c-.4-3.3-.9-6.5-1.4-9.7zm104.2 27.8v22.2c-27.5-5.8-47.6-12.4-55.7-15.3l-2.2-6.9h57.9zm173.3 153.4c-.1-.4-.2-.8-.4-1.1l-.3-1.1h-.1c-2.8-6.6-7.4-6.9-10.8-5.9l-6.7 8c-4 10.7-10.5 23.3-15.2 32.7l-4.1 8c-6.1 12.3-13.7 27.6-26 31.1-22 6.4-42.2-29.1-54.3-50.3-1.9-3.3-3.6-6.2-5.1-8.8l-2.9-4.7-5.5.4c-4.4.3-10 .8-41.3 79.2l-.2-.1c-5.6 14.3-10.8 25.9-21.9 31.5-9.9-2.5-20.5-28.2-24.6-38.2L109 436c-29.6-71.5-41.3-151.9-52.6-229.6-.1-.7-.2-1.3-.3-2h23.3l4.9 15.2 18.3 11.4c11.4 3.7 30 9.2 53.7 14v25.4c0 5 4 9 9 9h63c5 0 9-4 9-9v-4.9h36.8v4.9c0 5 4 9 9 9h63.5c5 0 9-4 9-9v-25.2c3.2-.6 6.4-1.3 9.5-2 4.9-1.1 7.9-5.9 6.9-10.8-1.1-4.9-5.9-8-10.8-6.9-1.9.4-3.8.8-5.6 1.2v-22.3h104.2c-4.7 39.1-14.2 78.8-23.2 115.9-3.2 13.3-6.3 26.3-9.1 38.8l-2.5 11.4c-6.8 31-13.9 63.1-29.7 90.8-5.3 9.3-10.8 14.5-14.4 14.3-4-.4-15.1-6.7-31.2-56.4l-.5.2c-5.4-16.4-12.1-37.1-19.7-61.5z"/></svg>