<svg xmlns="http://www.w3.org/2000/svg" viewBox="0 0 58.598 58.598" width="512" height="512"><g fill="#0F273A"><path d="M54.065 10.657c-.818-3.094-3.213-6.048-6.743-8.317-4.348-2.797-10.497-3.108-16.044-.814l-.195.083c-.095.041-.188.082-.28.114-.465.162-.822.3-1.113.413-.923.358-.924.357-2.442-.09C22.913.769 17.394-.506 13.162.994c-5.73 2.03-10.81 8.751-9.238 19.189.186 1.234.367 2.479.548 3.729 1.312 9.017 2.668 18.341 6.155 26.76l.119.289c.866 2.108 2.315 5.637 4.837 5.637h.203l.187-.079c2.315-.98 3.181-3.202 3.813-4.824l-1.863-.727c-.64 1.642-1.239 2.961-2.512 3.608-1.134-.283-2.345-3.231-2.815-4.375l-.121-.295c-3.391-8.187-4.73-17.386-6.024-26.281-.183-1.254-.364-2.501-.55-3.738-1.01-6.71 1.05-14.57 7.929-17.008 3.694-1.309 9.014-.039 12.74 1.052 6.425 3.65 6.424 5.228 6.399 11.753l-.003 1.32a1 1 0 1 0 2 0l.003-1.313c.021-5.72.013-8.413-4.556-11.691a30.92 30.92 0 0 1 1.047-.388c.14-.049.278-.107.417-.168l.164-.07c4.952-2.047 10.393-1.8 14.199.647 3.109 1.999 5.201 4.537 5.891 7.147 2.083 7.872-.17 17.233-2.159 25.493-.365 1.519-.723 3.005-1.045 4.444l-.289 1.306c-.78 3.553-1.587 7.226-3.395 10.393-.608 1.066-1.232 1.657-1.647 1.633-.458-.047-1.723-.771-3.569-6.456l-1.902.617c1.21 3.728 2.783 7.573 5.267 7.828 1.308.137 2.516-.751 3.589-2.63 1.958-3.433 2.799-7.257 3.611-10.955l.287-1.298c.321-1.43.676-2.905 1.039-4.414 2.043-8.489 4.359-18.112 2.147-26.472z"/><path d="M38.614 42.282a.998.998 0 0 0-1.265-.632l-.684.228v-3.892l1.316-.439a.999.999 0 0 0 .632-1.265.998.998 0 0 0-1.265-.632l-.684.228v-3.892l1.316-.439a.999.999 0 0 0 .632-1.265.998.998 0 0 0-1.265-.632l-.684.228v-5.694l-3.586-3.586h-6.828l-3.586 3.586v10.047l-1.303.414a1 1 0 0 0 .606 1.906l.697-.221v3.902l-1.303.414a1 1 0 0 0 .606 1.906l.697-.221v3.902l-1.303.414a1 1 0 0 0 .606 1.906l.697-.221V50.6h2v3.333l3.5 4.667h3l3.5-4.667V50.6h2v-6.613l1.316-.439a1 1 0 0 0 .635-1.266zm-13.949-17.27l2.414-2.414h5.172l2.414 2.414v3.586h-10v-3.586zm10 23.586h-2v4.667l-2.5 3.333h-1l-2.5-3.333v-4.667h-2v-.903l4.303-1.366a1 1 0 0 0-.606-1.906l-3.697 1.174v-3.901l4.303-1.366a1 1 0 0 0-.606-1.906l-3.697 1.174v-3.901l4.303-1.366a1 1 0 0 0-.606-1.906l-3.697 1.174v-2.998h9.839l-2.156.719a.999.999 0 1 0 .633 1.897l1.684-.561v3.893l-2.316.772a.999.999 0 1 0 .633 1.897l1.684-.561v3.893l-2.316.772a.999.999 0 1 0 .633 1.897l1.684-.561v3.94z"/></g></svg>