<svg xmlns="http://www.w3.org/2000/svg" viewBox="0 0 456.2 456.2"><path d="M233.68 73.405v103.82c0 6.7-5.43 12.13-12.13 12.13H35.86c-6.7 0-12.13-5.43-12.13-12.13V73.405c0-6.7 5.43-12.13 12.13-12.13h185.69c6.7 0 12.13 5.43 12.13 12.13z" fill="#29abe2"/><path fill="#4d4d4d" d="M23.73 88.525h209.95v31.32H23.73z"/><path d="M50.458 157.969a25.125 25.125 0 0 0 6.487 16.871c-.563.066-1.125.091-1.696.091-9.367 0-16.962-7.596-16.962-16.962s7.596-16.962 16.962-16.962c.571 0 1.133.025 1.696.091a25.125 25.125 0 0 0-6.487 16.871z" fill="#fc7a51"/><circle cx="75.695" cy="157.969" r="16.962" fill="#f4d521"/><path fill="#86d359" d="M170.342 123.366H432.47v141.09H170.342z"/><path d="M417.468 163.006v62.27c-13.46 0-24.39 10.78-24.63 24.18h-182.87c-.24-13.4-11.17-24.18-24.63-24.18v-62.27c13.61 0 24.64-11.03 24.64-24.64h182.85c0 13.61 11.03 24.64 24.64 24.64z" fill="#77bc4a"/><path d="M199.436 254.87c0 24.01-19.46 43.48-43.47 43.48-1.08 0-2.15-.04-3.21-.12a43.231 43.231 0 0 1-17.43-5.09c-13.6-7.35-22.84-21.73-22.84-38.27s9.24-30.92 22.84-38.27a43.063 43.063 0 0 1 17.43-5.08c1.06-.08 2.13-.12 3.21-.12 24.011 0 43.47 19.46 43.47 43.47z" fill="#f9de58"/><circle cx="155.963" cy="254.871" r="28.2" fill="#d6b71d"/><path d="M335.892 21.58v291.23c0 11.92-9.66 21.58-21.59 21.58h-139.96c-11.92 0-21.59-9.66-21.59-21.58V21.58c0-11.92 9.67-21.58 21.59-21.58h139.96c11.93 0 21.59 9.66 21.59 21.58z" fill="gray"/><path fill="#2be0c6" d="M161.4 44.136h165.854v240.215H161.4z"/><circle cx="244.325" cy="310.031" r="17.09" fill="#4d4d4d"/><path d="M309.709 105.7H179.327a2.81 2.81 0 0 1-2.809-2.809V67.509a2.81 2.81 0 0 1 2.809-2.809h130.382a2.81 2.81 0 0 1 2.809 2.809v35.382a2.81 2.81 0 0 1-2.809 2.809z" fill="#e6e6e6"/><path d="M309.709 147.7h-18.382a2.81 2.81 0 0 1-2.809-2.809v-18.382a2.81 2.81 0 0 1 2.809-2.809h18.382a2.81 2.81 0 0 1 2.809 2.809v18.382a2.81 2.81 0 0 1-2.809 2.809z" fill="#f9de58"/><path d="M309.709 183.7h-18.382a2.81 2.81 0 0 1-2.809-2.809v-18.382a2.81 2.81 0 0 1 2.809-2.809h18.382a2.81 2.81 0 0 1 2.809 2.809v18.382a2.81 2.81 0 0 1-2.809 2.809z" fill="#fc7a51"/><path d="M197.709 147.7h-18.382a2.81 2.81 0 0 1-2.809-2.809v-18.382a2.81 2.81 0 0 1 2.809-2.809h18.382a2.81 2.81 0 0 1 2.809 2.809v18.382a2.81 2.81 0 0 1-2.809 2.809zm37.333 0H216.66a2.81 2.81 0 0 1-2.809-2.809v-18.382a2.81 2.81 0 0 1 2.809-2.809h18.382a2.81 2.81 0 0 1 2.809 2.809v18.382a2.809 2.809 0 0 1-2.809 2.809zm37.334 0h-18.382a2.81 2.81 0 0 1-2.809-2.809v-18.382a2.81 2.81 0 0 1 2.809-2.809h18.382a2.81 2.81 0 0 1 2.809 2.809v18.382a2.81 2.81 0 0 1-2.809 2.809zm-74.667 36h-18.382a2.81 2.81 0 0 1-2.809-2.809v-18.382a2.81 2.81 0 0 1 2.809-2.809h18.382a2.81 2.81 0 0 1 2.809 2.809v18.382a2.81 2.81 0 0 1-2.809 2.809zm37.333 0H216.66a2.81 2.81 0 0 1-2.809-2.809v-18.382a2.81 2.81 0 0 1 2.809-2.809h18.382a2.81 2.81 0 0 1 2.809 2.809v18.382a2.809 2.809 0 0 1-2.809 2.809zm37.334 0h-18.382a2.81 2.81 0 0 1-2.809-2.809v-18.382a2.81 2.81 0 0 1 2.809-2.809h18.382a2.81 2.81 0 0 1 2.809 2.809v18.382a2.81 2.81 0 0 1-2.809 2.809zm-74.667 36.731h-18.382a2.81 2.81 0 0 1-2.809-2.809V199.24a2.81 2.81 0 0 1 2.809-2.809h18.382a2.81 2.81 0 0 1 2.809 2.809v18.382a2.81 2.81 0 0 1-2.809 2.809zm37.333 0H216.66a2.81 2.81 0 0 1-2.809-2.809V199.24a2.81 2.81 0 0 1 2.809-2.809h18.382a2.81 2.81 0 0 1 2.809 2.809v18.382a2.809 2.809 0 0 1-2.809 2.809zm37.334 0h-18.382a2.81 2.81 0 0 1-2.809-2.809V199.24a2.81 2.81 0 0 1 2.809-2.809h18.382a2.81 2.81 0 0 1 2.809 2.809v18.382a2.81 2.81 0 0 1-2.809 2.809zm37.333 0h-18.382a2.81 2.81 0 0 1-2.809-2.809V199.24a2.81 2.81 0 0 1 2.809-2.809h18.382a2.81 2.81 0 0 1 2.809 2.809v18.382a2.81 2.81 0 0 1-2.809 2.809z" fill="gray"/><path fill="#999" d="M271.518 90.7h29v7h-29z"/><path d="M335.892 21.58v291.23c0 11.92-9.66 21.58-21.59 21.58h-2.86l-15.25-50.04-73.21-240.21L209.532 0h104.77c11.93 0 21.59 9.66 21.59 21.58z" opacity=".32" fill="#fff"/><path d="M330.292 275.2v68.85h-58.46a20.008 20.008 0 0 0-20.03 20.03 20.008 20.008 0 0 1-20.03 20.03c-11.06 0-20.03-8.96-20.03-20.03V275.2h118.55z" fill="#e6e6e6"/><path d="M227.017 290.2h88v10h-88zm0 22.284h88v10h-88zm0 22.284h88v10h-88zm0 22.284h88v10h-88z" fill="#999"/><path d="M291.864 364.081v20.03h-60.089a20.013 20.013 0 0 0 14.171-5.859c3.618-3.63 5.859-8.638 5.859-14.171s2.241-10.541 5.859-14.171c3.63-3.618 8.638-5.859 14.171-5.859s10.541 2.241 14.171 5.859a20.018 20.018 0 0 1 5.858 14.171z" fill="#ccc"/><path d="M404.552 349.91a19.99 19.99 0 0 0-14.17-5.86h-118.55a20.008 20.008 0 0 1 20.03 20.03v80.12l11.854 12 11.852-12 11.853 12 11.854-12 11.85 12 11.853-12 11.857 12 11.853-12 11.861 12 11.862-12v-80.12a20.003 20.003 0 0 0-5.859-14.17z" fill="#e6e6e6"/><path d="M410.412 364.08h-118.55a20.008 20.008 0 0 0-20.03-20.03h118.55a20.008 20.008 0 0 1 20.03 20.03z" fill="#f2f2f2"/><path d="M307.017 373.484h88v10h-88zm0 22.284h88v10h-88zm0 22.284h88v10h-88z" fill="#999"/><path fill="#2496b5" d="M175.582 243.2h129v24.5h-129z"/><path fill="#29abe2" d="M183.582 243.2h129v24.5h-129z"/><path fill="#2496b5" d="M189.332 250.2h117.5v10.5h-117.5z"/><path d="M309.792 254.7h-118.55c11.322 0 20.5 9.178 20.5 20.5h118.55c0-11.322-9.178-20.5-20.5-20.5z" fill="#e6e6e6"/><path opacity=".2" fill="#4d4d4d" d="M135.329 61.275h17.422v128.08h-17.422zm17.428 150.245v86.71a43.231 43.231 0 0 1-17.43-5.09V216.6a43.063 43.063 0 0 1 17.43-5.08zm183.135-88.154h13.927v141.09h-13.927z"/></svg>