<svg xmlns="http://www.w3.org/2000/svg" viewBox="0 0 59.99 59.99" width="512" height="512"><g fill="#0F273A"><path d="M23.265 18.623l-1.303.414a1 1 0 0 0 .606 1.906l.697-.221v3.902l-1.303.414a1 1 0 0 0 .606 1.906l.697-.221v3.902l-1.303.414a1 1 0 0 0 .606 1.906l.697-.221v2.268h2v3.333l3.5 4.667h3l3.5-4.667V34.99h2v-6.613l1.316-.439a.999.999 0 1 0-.633-1.897l-.684.228v-3.892l1.316-.439a.999.999 0 1 0-.633-1.897l-.684.228v-3.892l1.316-.439a.988.988 0 0 0 .671-.948h16.473l-.106-1.097c-.099-1.021-.254-1.482-.435-2.019-.087-.26-.188-.559-.304-.995-.818-3.095-3.213-6.049-6.742-8.318C43.624-.341 37.326-.82 32.094 1.345l-.19.081c-.095.041-.188.082-.286.116-.465.161-.822.3-1.113.413-.922.357-.921.358-2.441-.09-3.245-.958-9.39-2.314-14.086-.649-5.744 2.035-8.912 6.306-9.417 12.695l-.085 1.079h18.789v3.633zM6.671 12.99c.685-4.993 3.302-8.233 7.975-9.89 4.32-1.529 10.428-.031 12.853.683 1.991.589 2.305.591 3.731.036.273-.106.608-.236 1.042-.388.143-.049.284-.108.427-.17l.16-.068c4.645-1.922 10.219-1.509 14.199 1.05 3.108 1.999 5.2 4.537 5.891 7.148.13.491.243.828.342 1.121.059.174.108.322.152.478H35.265v1.947l-2.316.772a.999.999 0 1 0 .633 1.897l1.684-.561v3.893l-2.316.772a.999.999 0 1 0 .633 1.897l1.684-.561v3.893l-2.316.772a.999.999 0 1 0 .633 1.897l1.684-.561v3.946h-2v4.667l-2.5 3.333h-1l-2.5-3.333v-4.67h-2v-.903l4.303-1.366a1 1 0 0 0-.606-1.906l-3.697 1.174v-3.901l4.303-1.366a1 1 0 0 0-.606-1.906l-3.697 1.174v-3.901l4.303-1.366a1 1 0 0 0-.606-1.906l-3.697 1.174V12.99H6.671z"/><path d="M55.309 18.99H42.265v2H53.48c.408 6.189-1.127 12.199-2.614 18.02-.459 1.795-.934 3.651-1.345 5.488l-.29 1.31c-.78 3.551-1.587 7.223-3.394 10.39-.608 1.065-1.232 1.691-1.647 1.632-.458-.047-1.724-.771-3.569-6.456a445.436 445.436 0 0 1-2.313-7.395 3.304 3.304 0 0 0-.043-.13l-.038-.133-.012.004c-.325-.77-.841-.809-1.233-.692l-.949.284.185.647c-.458 1.259-1.194 2.735-1.742 3.834l-.464.939c-.699 1.44-1.57 3.232-2.978 3.649-2.515.753-4.827-3.408-6.207-5.891-.212-.382-.406-.73-.581-1.028l-.333-.551-.625.05c-.51.04-1.144.09-4.771 9.399-.64 1.642-1.239 2.96-2.512 3.607-1.134-.283-2.345-3.231-2.815-4.376l-.121-.294C9.679 45.11 8.34 35.914 7.046 27.02c-.183-1.256-.364-2.505-.551-3.743l-.064-.424c-.135-.884-.185-1.207-.158-1.864h11.994v-2H4.41l-.073.921c-.126 1.597-.091 1.9.115 3.246l.064.418c.186 1.236.367 2.481.549 3.734 1.312 9.016 2.668 18.338 6.154 26.755l.119.288c.866 2.108 2.315 5.638 4.837 5.638h.203l.187-.079c2.314-.98 3.18-3.201 3.813-4.823a135.944 135.944 0 0 1 3.006-7.074c1.699 3.027 4.402 7.413 8.216 6.286 2.253-.668 3.383-2.995 4.208-4.693l.454-.921c.26-.521.561-1.124.858-1.755.603 1.95 1.137 3.646 1.597 5.06 1.21 3.728 2.782 7.573 5.267 7.829 1.312.134 2.515-.751 3.588-2.631 1.958-3.432 2.798-7.254 3.61-10.951l.288-1.302c.405-1.809.876-3.649 1.331-5.431 1.603-6.271 3.259-12.754 2.594-19.611l-.086-.903z"/></g></svg>