<svg xmlns="http://www.w3.org/2000/svg" viewBox="0 0 233.783 233.783" width="512" height="512"><g fill="#0F273A"><path d="M233.566 145.59a4.025 4.025 0 0 0-3.299-2.707c-5.303-.699-14.232-2.671-16.544-4.699L86.699 26.714a4.04 4.04 0 0 0-5.52.181L26.898 81.177a4.036 4.036 0 0 0-.181 5.52L139.26 214.944s0 .004.004.004c1.523 1.736 3.093 9.229 3.602 15.136a4.046 4.046 0 0 0 2.64 3.453 4.043 4.043 0 0 0 4.242-.94l82.852-82.852a4.033 4.033 0 0 0 .966-4.155zm-83.795 75.557c-.844-4.301-2.225-9.012-4.435-11.529L35.286 84.215l48.931-48.931 124.179 108.977c2.837 2.486 8.329 4.179 13.021 5.24l-71.646 71.646zM38.325 62.36a4.03 4.03 0 0 0 2.857-1.184l20.001-19.997a4.04 4.04 0 0 0 .505-5.098L38.83 1.797A4.04 4.04 0 0 0 35.867.018a4.082 4.082 0 0 0-3.255 1.164L1.183 32.609a4.038 4.038 0 0 0 .615 6.218L36.082 61.68a4.02 4.02 0 0 0 2.243.68zM34.84 10.379l18.284 27.427-15.312 15.313-27.431-18.28 24.459-24.46z"/><path d="M164.035 109.747a4.04 4.04 0 0 0-5.714 0l-48.572 48.568a4.036 4.036 0 0 0 0 5.714l20.001 20.001a4.036 4.036 0 0 0 5.714 0l48.568-48.572a4.04 4.04 0 0 0 0-5.714l-19.997-19.997zm-31.428 65.712l-14.287-14.287 42.858-42.854 14.284 14.284-42.855 42.857z"/></g></svg>